<?xml version="1.0" encoding="UTF-8"?>
<svg version="1.1" xmlns="http://www.w3.org/2000/svg" width="626" height="501">
<path d="M0 0 C206.58 0 413.16 0 626 0 C626 165.33 626 330.66 626 501 C419.42 501 212.84 501 0 501 C0 335.67 0 170.34 0 0 Z " fill="#FEFEFE" transform="translate(0,0)"/>
<path d="M0 0 C9.61504431 7.42213946 15.39313578 17.69987455 18.171875 29.5 C18.41104494 32.23933017 18.55181927 34.82646351 18.546875 37.5625 C18.54816406 38.31966309 18.54945313 39.07682617 18.55078125 39.85693359 C18.37252495 49.89802997 16.24587099 59.70643649 14.171875 69.5 C15.1309375 69.9640625 15.1309375 69.9640625 16.109375 70.4375 C18.171875 71.5 18.171875 71.5 19.171875 72.5 C19.66964889 79.59327787 18.38537698 84.95839684 14.609375 91 C14.135 91.495 13.660625 91.99 13.171875 92.5 C12.511875 92.5 11.851875 92.5 11.171875 92.5 C11.171875 93.16 11.171875 93.82 11.171875 94.5 C10.511875 94.5 9.851875 94.5 9.171875 94.5 C9.171875 95.16 9.171875 95.82 9.171875 96.5 C8.57375 96.68304688 7.975625 96.86609375 7.359375 97.0546875 C4.15887651 99.16930258 3.40713818 102.15150368 2.171875 105.625 C1.65052877 106.99819163 1.12710951 108.3705981 0.6015625 109.7421875 C0.35374023 110.39799805 0.10591797 111.05380859 -0.14941406 111.72949219 C-3.70335876 121.00042993 -9.33852699 129.57729869 -16.828125 136.125 C-19.42717231 138.62340084 -20.29451331 140.12338556 -20.390625 143.75 C-20.24163506 145.33742014 -20.05115068 146.92127892 -19.828125 148.5 C-19.76496094 149.41523438 -19.70179688 150.33046875 -19.63671875 151.2734375 C-19.06462105 156.55990988 -18.28116878 159.65354274 -14.078125 163.0625 C-13.36785156 163.59875 -12.65757812 164.135 -11.92578125 164.6875 C-7.33538288 168.65387774 -4.58564555 174.44387279 -2.515625 180.0625 C-1.09694951 182.68117995 -1.09694951 182.68117995 1.31640625 183.046875 C3.78162709 183.34124529 3.78162709 183.34124529 6.2109375 183.39453125 C8.171875 183.5 8.171875 183.5 9.171875 184.5 C10.93318413 184.8988419 12.70666735 185.24463174 14.484375 185.5625 C15.44988281 185.73910156 16.41539062 185.91570312 17.41015625 186.09765625 C20.36643206 186.59610942 20.36643206 186.59610942 24.171875 186.5 C23.78515625 186.09910156 23.3984375 185.69820312 23 185.28515625 C13.65627884 175.08569825 11.81570508 162.94467869 11.796875 149.5 C11.77238281 148.57960937 11.74789062 147.65921875 11.72265625 146.7109375 C11.68685717 138.23848862 13.76401419 130.33752341 19.671875 124 C20.2390625 123.3709375 20.80625 122.741875 21.390625 122.09375 C25.12295082 118.75430058 27.95621198 118.25676993 32.921875 118.375 C33.90671875 118.39304688 34.8915625 118.41109375 35.90625 118.4296875 C36.65390625 118.45289063 37.4015625 118.47609375 38.171875 118.5 C38.171875 120.81 38.171875 123.12 38.171875 125.5 C38.91872559 125.49476318 39.66557617 125.48952637 40.43505859 125.48413086 C43.80565557 125.46339599 47.17623914 125.45035101 50.546875 125.4375 C51.7225 125.42912109 52.898125 125.42074219 54.109375 125.41210938 C55.23085938 125.40888672 56.35234375 125.40566406 57.5078125 125.40234375 C58.54470215 125.39710693 59.5815918 125.39187012 60.64990234 125.38647461 C63.171875 125.5 63.171875 125.5 65.171875 126.5 C65.171875 127.16 65.171875 127.82 65.171875 128.5 C65.831875 128.5 66.491875 128.5 67.171875 128.5 C67.58509981 132.71489311 67.71952696 134.78049506 65.10546875 138.21484375 C61.41717207 141.08788444 59.54247966 141.05564092 54.921875 140.875 C52.94767578 140.80925781 52.94767578 140.80925781 50.93359375 140.7421875 C46.64579988 140.46613016 42.42667631 140.0971651 38.171875 139.5 C38.171875 140.82 38.171875 142.14 38.171875 143.5 C39.30625 143.48839844 40.440625 143.47679687 41.609375 143.46484375 C43.13020667 143.4554559 44.65104014 143.44635678 46.171875 143.4375 C46.91566406 143.42912109 47.65945312 143.42074219 48.42578125 143.41210938 C53.43330359 143.39033754 58.23408792 143.62289308 63.171875 144.5 C65.66511085 147.22697671 66.10881188 148.974474 66.546875 152.625 C66.171875 155.5 66.171875 155.5 65.00854492 157.16137695 C62.42217228 159.04640702 60.58674485 158.8413432 57.41015625 158.79296875 C56.29189453 158.78330078 55.17363281 158.77363281 54.02148438 158.76367188 C52.85423828 158.73853516 51.68699219 158.71339844 50.484375 158.6875 C49.30552734 158.67396484 48.12667969 158.66042969 46.91210938 158.64648438 C43.99824089 158.61109326 41.08528555 158.56171809 38.171875 158.5 C38.171875 159.49 38.171875 160.48 38.171875 161.5 C38.8424292 161.47381592 39.5129834 161.44763184 40.20385742 161.4206543 C43.25545628 161.31642762 46.30668042 161.25159377 49.359375 161.1875 C50.94202148 161.1246582 50.94202148 161.1246582 52.55664062 161.06054688 C60.37754587 160.93718875 60.37754587 160.93718875 64.375 163.76953125 C66.83683919 167.51045646 66.83683919 167.51045646 66.734375 170.5 C66.73566406 171.139375 66.73695313 171.77875 66.73828125 172.4375 C65.78970081 175.8916412 65.00095881 177.17510935 62.171875 179.5 C57.91080122 180.13314502 53.71748594 179.96779183 49.421875 179.8125 C47.66037109 179.77866211 47.66037109 179.77866211 45.86328125 179.74414062 C42.96479362 179.68522827 40.06919806 179.59872979 37.171875 179.5 C37.24292953 180.15978348 37.31398407 180.81956696 37.38719177 181.49934387 C38.07742824 188.3805746 38.30545361 195.16181132 38.26953125 202.07421875 C38.26740883 203.64898735 38.26740883 203.64898735 38.26524353 205.25556946 C38.2597038 208.56624357 38.24716303 211.87684678 38.234375 215.1875 C38.22935219 217.44986881 38.22479066 219.71223869 38.22070312 221.97460938 C38.20975421 227.48309658 38.19307746 232.99154322 38.171875 238.5 C38.78875183 238.28846786 39.40562866 238.07693573 40.04119873 237.85899353 C41.25588837 237.44720604 41.25588837 237.44720604 42.49511719 237.02709961 C43.69886993 236.61698891 43.69886993 236.61698891 44.92694092 236.19859314 C53.52266901 233.52371875 63.21858215 235.78411727 71.171875 239.5 C72.45624335 240.71161923 73.73859112 241.92538198 75.01953125 243.140625 C81.46774483 248.34874529 89.17547484 247.1061511 96.984375 246.6875 C99.23654575 246.58408769 101.48762489 246.49150246 103.74113464 246.42292786 C105.77211306 246.3588387 107.80186695 246.25889904 109.83129883 246.15698242 C113.171875 246.5 113.171875 246.5 115.6003418 248.28637695 C117.85996051 251.46922034 117.65624949 253.69420047 117.171875 257.5 C115.19257232 260.52104093 112.5225082 261.37127211 109.171875 262.5 C106.2053955 262.99302258 103.22750391 263.28151239 100.234375 263.5625 C98.66260722 263.71851633 97.09098804 263.87603803 95.51953125 264.03515625 C94.39949707 264.14766724 94.39949707 264.14766724 93.25683594 264.26245117 C91.45649354 264.46757215 89.66572381 264.75370518 87.87890625 265.0546875 C84.25257982 265.65122605 80.84185963 265.5632756 77.171875 265.5 C77.501875 266.20125 77.831875 266.9025 78.171875 267.625 C79.27311371 270.79106128 79.39383186 273.17064704 79.171875 276.5 C78.841875 277.16 78.511875 277.82 78.171875 278.5 C77.92400483 282.64503661 77.92400483 282.64503661 79.171875 286.5 C79.33984375 288.5234375 79.33984375 288.5234375 79.359375 290.875 C79.37355469 291.64585937 79.38773438 292.41671875 79.40234375 293.2109375 C79.14576124 295.75936718 78.54523399 297.34664966 77.171875 299.5 C75.046875 300.25 75.046875 300.25 73.171875 300.5 C73.171875 301.16 73.171875 301.82 73.171875 302.5 C49.59733825 312.5875802 49.59733825 312.5875802 38.171875 312.5 C38.19399803 313.74927528 38.19399803 313.74927528 38.21656799 315.02378845 C38.40530731 325.82811968 38.57651817 336.63267343 38.734375 347.4375 C38.74710827 348.30828438 38.75984154 349.17906876 38.77296066 350.07624054 C39.27983836 385.25191587 38.88817182 420.32186728 38.171875 455.5 C5.171875 455.5 -27.828125 455.5 -61.828125 455.5 C-65.788125 442.63 -69.748125 429.76 -73.828125 416.5 C-76.06093879 410.54365611 -76.06093879 410.54365611 -78.390625 404.625 C-79.84402743 400.78710921 -80.6156105 396.93377595 -81.30078125 392.89453125 C-81.75731932 390.47951751 -81.75731932 390.47951751 -82.7734375 388.25 C-84.22069506 384.47640991 -84.89268942 380.65101265 -85.640625 376.6875 C-85.98706227 374.89429532 -86.33477519 373.10133674 -86.68359375 371.30859375 C-86.86712402 370.36483887 -87.0506543 369.42108398 -87.23974609 368.44873047 C-87.84219533 365.42948485 -88.47966396 362.41966977 -89.12890625 359.41015625 C-91.55853021 348.13116296 -93.69602285 336.98999201 -94.828125 325.5 C-95.59253906 325.48582031 -96.35695312 325.47164063 -97.14453125 325.45703125 C-116.21731154 324.60782202 -132.2656578 316.6320226 -145.41113281 303.0625 C-155.58730296 291.84136131 -158.69351926 278.39622577 -157.99414062 263.61328125 C-156.59283683 245.77550829 -148.16864182 228.11303284 -136.828125 214.5 C-136.16554688 213.65308594 -135.50296875 212.80617187 -134.8203125 211.93359375 C-123.44523955 198.186965 -106.27561168 190.81437938 -89.35546875 186.2421875 C-82.41813713 184.63781728 -82.41813713 184.63781728 -77.1953125 180.21875 C-76.16032416 177.65023975 -76.16032416 177.65023975 -75.5078125 175.00390625 C-74.30408783 170.56949525 -71.6453418 166.67162662 -67.75 164.16015625 C-63.93840362 160.86761872 -64.33127205 155.25917912 -63.828125 150.5 C-63.70824219 149.64921875 -63.58835937 148.7984375 -63.46484375 147.921875 C-63.1887427 144.73859229 -62.99739573 142.49233009 -65.11328125 139.96484375 C-66.3086819 138.98728376 -67.53151135 138.04272856 -68.7734375 137.125 C-78.6691252 129.2987527 -86.39347025 115.34824816 -90.265625 103.5 C-92.3628815 97.51621921 -95.15959115 95.14431845 -100.51171875 91.921875 C-103.33040135 90.19168871 -105.10548278 88.31886909 -106.828125 85.5 C-106.828125 84.51 -106.828125 83.52 -106.828125 82.5 C-107.488125 82.5 -108.148125 82.5 -108.828125 82.5 C-108.99467951 73.30248991 -108.99467951 73.30248991 -108.140625 69.1875 C-107.82607304 65.47578688 -108.27763086 63.5318482 -109.265625 60 C-112.94834872 45.28615477 -112.76798403 28.45535959 -105.47265625 15 C-100.17643618 6.3670193 -93.57829939 1.31432478 -83.828125 -1.5 C-82.4765444 -1.61807489 -81.12157606 -1.70408134 -79.765625 -1.75 C-74.99271232 -2.14137884 -72.58048286 -5.1613978 -69.26171875 -8.359375 C-47.57610658 -27.4343597 -19.8999534 -14.83989296 0 0 Z " fill="#AB8EE0" transform="translate(202.828125,41.5)"/>
<path d="M0 0 C74.58 0 149.16 0 226 0 C226 49.5 226 99 226 150 C222.37 150.33 218.74 150.66 215 151 C207.84762075 154.64121125 204.68799282 159.95889998 201.85546875 167.20019531 C200.46511994 171.75057206 200.44674692 176.0874425 200.5625 180.8125 C200.57716309 181.77446289 200.59182617 182.73642578 200.60693359 183.72753906 C200.97918078 197.81602829 204.48636085 207.82584861 213 219 C211.10272403 218.7628405 209.20550335 218.52522859 207.30859375 218.28515625 C205.78103223 218.09647268 204.25234862 217.91664264 202.72265625 217.74609375 C197.10625 217.10625 197.10625 217.10625 196 216 C195.08154297 216.01740234 195.08154297 216.01740234 194.14453125 216.03515625 C191.49068348 216.06627339 189.51501989 215.87606526 187 215 C184.38297117 211.99636464 182.78378087 208.54257882 181 205 C177.20627671 198.5666223 177.20627671 198.5666223 171.75 193.625 C167.59882017 189.66251016 167.52640819 185.5387297 167 180 C166.78923828 178.81277344 166.78923828 178.81277344 166.57421875 177.6015625 C166.28103951 175.10735108 166.29016929 173.41690826 167 171 C168.97871209 168.55675957 171.16235102 166.53993133 173.48828125 164.42578125 C181.0143486 157.15721543 185.10586515 148.08101728 188.67578125 138.4453125 C189.93920673 135.1581701 191.27248099 132.06910292 193 129 C195.1875 128.125 195.1875 128.125 197 128 C197 127.34 197 126.68 197 126 C197.66 126 198.32 126 199 126 C199 125.34 199 124.68 199 124 C199.66 124 200.32 124 201 124 C204.52986944 117.48331796 206.88687491 111.47508851 206 104 C204.68662604 102.9739266 203.35335895 101.97272675 202 101 C201.66234631 96.1160806 202.3530072 91.91884532 203.5 87.1875 C207.02199733 70.85279056 206.02594645 55.99098997 196.8125 41.625 C186.95174851 28.64697868 169.016608 17.93637813 153 15 C138.54874802 14.17872666 128.84662182 16.30610818 117 25 C115.7625 26.3921875 115.7625 26.3921875 114.5 27.8125 C111.14655912 30.74676077 108.23306045 30.78968822 103.91015625 31.4296875 C95.26512615 33.12388132 88.87596393 37.75756824 84 45 C82.39513873 47.92296049 81.09441298 50.85161763 80 54 C79.64164062 55.01707031 79.28328125 56.03414062 78.9140625 57.08203125 C77.54102979 62.02773084 77.66127572 67.02666767 77.6875 72.125 C77.68834595 73.65543945 77.68834595 73.65543945 77.68920898 75.21679688 C77.7719858 82.02505506 78.56796765 87.92808806 80.39453125 94.48828125 C81.22176995 97.91998762 80.77403217 100.58135794 80 104 C79.79377834 105.81046545 79.60726889 107.62325332 79.4375 109.4375 C79.31181641 110.73494141 79.31181641 110.73494141 79.18359375 112.05859375 C79.12300781 112.69925781 79.06242187 113.33992188 79 114 C79.66 114 80.32 114 81 114 C81.556875 115.0725 82.11375 116.145 82.6875 117.25 C85.14596372 121.54365494 88.10493535 124.01999772 92.5078125 126.296875 C95.45288286 128.30949362 96.13520911 129.71803614 97.4375 133 C102.98015525 146.12279749 110.67953793 162.85246119 122.9375 170.9375 C125.30095075 173.30095075 125.34574782 173.79440837 125.4375 177 C125.32969742 178.66955795 125.17962365 180.33663579 125 182 C124.87431641 183.52367187 124.87431641 183.52367187 124.74609375 185.078125 C123.7906717 193.24446927 123.7906717 193.24446927 120.1875 196.6875 C119.135625 197.450625 118.08375 198.21375 117 199 C114.30991894 202.92992288 112.27929821 206.88898632 111.1171875 211.51171875 C109.98388186 214.1659741 109.17446739 214.90805454 106.58178711 216.27441406 C103.35374169 217.45455405 100.10921174 218.46566766 96.8125 219.4375 C94.44270808 220.19634126 92.07549338 220.96327849 89.7109375 221.73828125 C88.55948242 222.11549316 87.40802734 222.49270508 86.22167969 222.88134766 C63.03186188 230.93346536 48.84014514 246.50268734 38.25 268.25 C31.35461884 283.13397961 27.91289128 300.49620741 33.03515625 316.453125 C39.07635656 332.39993717 50.36895652 343.30810522 65.875 350.3125 C74.71197159 353.88220971 83.59915407 355.67643522 93 357 C93.19110352 358.03705078 93.38220703 359.07410156 93.57910156 360.14257812 C94.30467267 364.07240083 95.03693395 368.00095453 95.77099609 371.92919922 C96.08493357 373.61409304 96.39717011 375.29930487 96.70751953 376.98486328 C98.54845506 386.97595996 100.59404557 396.85001161 103.14697266 406.68505859 C103.86882751 409.49025184 104.52217905 412.29250313 105.125 415.125 C105.90671526 418.88598532 105.90671526 418.88598532 107 422 C107.79630344 424.38891033 108.36738005 426.60900357 108.875 429.0625 C110.53543715 436.76796615 112.86434824 444.28878689 115.8671875 451.57421875 C118.35980021 457.72919751 120.30932609 464.02827755 122.25 470.375 C122.61351562 471.53644531 122.97703125 472.69789063 123.3515625 473.89453125 C123.69445312 475.00957031 124.03734375 476.12460937 124.390625 477.2734375 C124.70032227 478.27810059 125.01001953 479.28276367 125.32910156 480.31787109 C126 483 126 483 126 487 C109.71929697 487.02332902 93.43859933 487.04097919 77.15788364 487.05181217 C69.59898381 487.05697512 62.04009435 487.0640178 54.48120117 487.07543945 C47.89520334 487.08538632 41.30921302 487.09185343 34.72320789 487.09408849 C31.23386929 487.0953956 27.74455216 487.09848142 24.25522041 487.10573006 C20.36618768 487.11374398 16.47717622 487.11399114 12.58813477 487.11352539 C11.42288773 487.11712067 10.25764069 487.12071594 9.05708313 487.12442017 C7.47736725 487.12235817 7.47736725 487.12235817 5.86573792 487.12025452 C4.48443113 487.12163721 4.48443113 487.12163721 3.07521915 487.12304783 C1 487 1 487 0 486 C-0.09887694 483.42021618 -0.13177075 480.86719631 -0.12304783 478.28691006 C-0.12420167 477.4652066 -0.12535552 476.64350315 -0.12654433 475.79689959 C-0.12921851 473.00768204 -0.12468229 470.21852073 -0.12025452 467.42930603 C-0.12069006 465.42378986 -0.12156464 463.41827374 -0.12284368 461.41275793 C-0.12509206 455.87384522 -0.12106271 450.33495164 -0.11606562 444.79604137 C-0.11176619 438.83349472 -0.11320718 432.87094925 -0.1139679 426.90840149 C-0.11449345 416.56861565 -0.11137806 406.22883565 -0.10573006 395.88905144 C-0.09981952 385.04092313 -0.09596542 374.19279734 -0.09487724 363.34466743 C-0.0948085 362.67097164 -0.09473976 361.99727584 -0.09466894 361.30316502 C-0.09433062 357.88201216 -0.09402923 354.46085929 -0.09374207 351.03970642 C-0.09163986 326.78745556 -0.08489751 302.53520799 -0.07543945 278.28295898 C-0.06625983 254.71752947 -0.05919077 231.15210086 -0.05493164 207.58666992 C-0.054661 206.10562096 -0.05439029 204.624572 -0.05411953 203.14352304 C-0.05203405 191.67738423 -0.05008326 180.21124541 -0.04816496 168.74510658 C-0.03872319 112.49673464 -0.0186068 56.24837109 0 0 Z " fill="#DDE7F9" transform="translate(15,10)"/>
<path d="M0 0 C9.61504431 7.42213946 15.39313578 17.69987455 18.171875 29.5 C18.41104494 32.23933017 18.55181927 34.82646351 18.546875 37.5625 C18.54816406 38.31966309 18.54945313 39.07682617 18.55078125 39.85693359 C18.37252495 49.89802997 16.24587099 59.70643649 14.171875 69.5 C15.1309375 69.9640625 15.1309375 69.9640625 16.109375 70.4375 C18.171875 71.5 18.171875 71.5 19.171875 72.5 C19.66964889 79.59327787 18.38537698 84.95839684 14.609375 91 C14.135 91.495 13.660625 91.99 13.171875 92.5 C12.511875 92.5 11.851875 92.5 11.171875 92.5 C11.171875 93.16 11.171875 93.82 11.171875 94.5 C10.511875 94.5 9.851875 94.5 9.171875 94.5 C9.171875 95.16 9.171875 95.82 9.171875 96.5 C8.57375 96.68304688 7.975625 96.86609375 7.359375 97.0546875 C4.15887651 99.16930258 3.40713818 102.15150368 2.171875 105.625 C1.65052877 106.99819163 1.12710951 108.3705981 0.6015625 109.7421875 C0.35374023 110.39799805 0.10591797 111.05380859 -0.14941406 111.72949219 C-3.70335876 121.00042993 -9.33852699 129.57729869 -16.828125 136.125 C-18.83491034 138.0268852 -19.72071933 138.99250822 -20.296875 141.71484375 C-20.34077751 145.01302016 -19.9045028 148.07037488 -19.328125 151.3125 C-18.53740904 156.35331423 -18.75396742 161.40784625 -18.828125 166.5 C-19.488125 166.5 -20.148125 166.5 -20.828125 166.5 C-20.828125 167.16 -20.828125 167.82 -20.828125 168.5 C-22.148125 168.5 -23.468125 168.5 -24.828125 168.5 C-24.828125 169.16 -24.828125 169.82 -24.828125 170.5 C-26.808125 170.5 -28.788125 170.5 -30.828125 170.5 C-30.828125 171.16 -30.828125 171.82 -30.828125 172.5 C-32.808125 172.5 -34.788125 172.5 -36.828125 172.5 C-36.828125 175.8 -36.828125 179.1 -36.828125 182.5 C-37.488125 182.5 -38.148125 182.5 -38.828125 182.5 C-38.828125 186.46 -38.828125 190.42 -38.828125 194.5 C-39.488125 194.5 -40.148125 194.5 -40.828125 194.5 C-40.828125 191.86 -40.828125 189.22 -40.828125 186.5 C-41.488125 186.5 -42.148125 186.5 -42.828125 186.5 C-42.828125 181.88 -42.828125 177.26 -42.828125 172.5 C-44.148125 172.5 -45.468125 172.5 -46.828125 172.5 C-46.828125 171.84 -46.828125 171.18 -46.828125 170.5 C-50.788125 170.5 -54.748125 170.5 -58.828125 170.5 C-58.828125 169.84 -58.828125 169.18 -58.828125 168.5 C-60.808125 168.5 -62.788125 168.5 -64.828125 168.5 C-65.7370027 164.20984303 -65.76843216 160.97326438 -64.890625 156.6875 C-63.27373051 149.1046884 -63.27373051 149.1046884 -63.828125 141.5 C-65.31338987 139.72580823 -66.9133361 138.49953276 -68.7734375 137.125 C-78.6691252 129.2987527 -86.39347025 115.34824816 -90.265625 103.5 C-92.3628815 97.51621921 -95.15959115 95.14431845 -100.51171875 91.921875 C-103.33040135 90.19168871 -105.10548278 88.31886909 -106.828125 85.5 C-106.828125 84.51 -106.828125 83.52 -106.828125 82.5 C-107.488125 82.5 -108.148125 82.5 -108.828125 82.5 C-108.99467951 73.30248991 -108.99467951 73.30248991 -108.140625 69.1875 C-107.82607304 65.47578688 -108.27763086 63.5318482 -109.265625 60 C-112.94834872 45.28615477 -112.76798403 28.45535959 -105.47265625 15 C-100.17643618 6.3670193 -93.57829939 1.31432478 -83.828125 -1.5 C-82.4765444 -1.61807489 -81.12157606 -1.70408134 -79.765625 -1.75 C-74.99271232 -2.14137884 -72.58048286 -5.1613978 -69.26171875 -8.359375 C-47.57610658 -27.4343597 -19.8999534 -14.83989296 0 0 Z " fill="#F19F7A" transform="translate(202.828125,41.5)"/>
<path d="M0 0 C9.61220228 7.41994562 15.39934728 17.70093225 18.171875 29.5 C19.01181283 39.29601914 18.26413467 48.84432252 16.484375 58.5 C16.33597168 59.3664917 16.18756836 60.2329834 16.03466797 61.12573242 C15.5727134 63.37928498 15.10546122 65.39759554 14.171875 67.5 C11.7109375 69.02734375 11.7109375 69.02734375 9.171875 69.5 C8.2025 69.685625 7.233125 69.87125 6.234375 70.0625 C2.5171165 69.37973824 1.03983231 67.89860199 -1.265625 64.96875 C-3.21046672 61.89590009 -4.72220416 58.65968327 -6.265625 55.375 C-9.49570134 48.62751462 -12.08129313 45.23271452 -19.12890625 42.66015625 C-26.06476977 40.642633 -33.18075454 39.92597143 -40.328125 39.0625 C-52.46493587 37.56805279 -62.00624371 35.48578559 -71.8671875 27.890625 C-73.69936355 26.3071773 -73.69936355 26.3071773 -75.828125 26.5 C-76.30121094 27.62535156 -76.77429688 28.75070313 -77.26171875 29.91015625 C-80.61360019 37.7466594 -84.09436932 45.41549232 -88.453125 52.75 C-88.80044678 53.34433838 -89.14776855 53.93867676 -89.50561523 54.55102539 C-92.84188717 60.0038152 -96.89190516 65.41634557 -103.203125 67.375 C-104.399375 67.74625 -105.595625 68.1175 -106.828125 68.5 C-112.46936776 55.28434608 -113.44637956 36.36253663 -109.203125 22.625 C-105.03299326 12.55815567 -99.0475822 4.5427037 -88.890625 0.1875 C-85.74469246 -0.99578882 -83.11245504 -1.63666113 -79.765625 -1.75 C-74.99271232 -2.14137884 -72.58048286 -5.1613978 -69.26171875 -8.359375 C-47.57610658 -27.4343597 -19.8999534 -14.83989296 0 0 Z " fill="#020102" transform="translate(202.828125,41.5)"/>
<path d="M0 0 C1.28436835 1.21161923 2.56671612 2.42538198 3.84765625 3.640625 C10.29586983 8.84874529 18.00359984 7.6061511 25.8125 7.1875 C28.06467075 7.08408769 30.31574989 6.99150246 32.56925964 6.92292786 C34.60023806 6.8588387 36.62999195 6.75889904 38.65942383 6.65698242 C42 7 42 7 44.4284668 8.78637695 C46.68808551 11.96922034 46.48437449 14.19420047 46 18 C44.02069732 21.02104093 41.3506332 21.87127211 38 23 C35.0335205 23.49302258 32.05562891 23.78151239 29.0625 24.0625 C27.49073222 24.21851633 25.91911304 24.37603803 24.34765625 24.53515625 C23.22762207 24.64766724 23.22762207 24.64766724 22.08496094 24.76245117 C20.28461854 24.96757215 18.49384881 25.25370518 16.70703125 25.5546875 C13.08070482 26.15122605 9.66998463 26.0632756 6 26 C6.33 26.70125 6.66 27.4025 7 28.125 C8.10123871 31.29106128 8.22195686 33.67064704 8 37 C7.505 37.99 7.505 37.99 7 39 C6.75212983 43.14503661 6.75212983 43.14503661 8 47 C8.16796875 49.0234375 8.16796875 49.0234375 8.1875 51.375 C8.20167969 52.14585937 8.21585937 52.91671875 8.23046875 53.7109375 C7.97388624 56.25936718 7.37335899 57.84664966 6 60 C3.875 60.75 3.875 60.75 2 61 C2 61.66 2 62.32 2 63 C-0.60073524 64.11285857 -3.20517795 65.21526117 -5.8125 66.3125 C-6.53115234 66.62123047 -7.24980469 66.92996094 -7.99023438 67.24804688 C-18.31921602 71.57074844 -27.46908869 73.45542287 -38.6875 73.1875 C-39.78255859 73.17396484 -40.87761719 73.16042969 -42.00585938 73.14648438 C-44.67111414 73.11156837 -47.33527504 73.06253717 -50 73 C-50 72.34 -50 71.68 -50 71 C-52.64 71 -55.28 71 -58 71 C-58 70.34 -58 69.68 -58 69 C-59.32 69 -60.64 69 -62 69 C-62 68.34 -62 67.68 -62 67 C-68.6 67 -75.2 67 -82 67 C-82 63.04 -82 59.08 -82 55 C-82.66 55 -83.32 55 -84 55 C-84 46.42 -84 37.84 -84 29 C-83.34 29 -82.68 29 -82 29 C-82 28.34 -82 27.68 -82 27 C-80.02 27 -78.04 27 -76 27 C-76 26.34 -76 25.68 -76 25 C-74.02 25 -72.04 25 -70 25 C-70 24.34 -70 23.68 -70 23 C-67.36 23 -64.72 23 -62 23 C-62 22.34 -62 21.68 -62 21 C-61.34 21 -60.68 21 -60 21 C-60 20.34 -60 19.68 -60 19 C-59.34 19 -58.68 19 -58 19 C-58 18.34 -58 17.68 -58 17 C-57.34 17 -56.68 17 -56 17 C-56 16.34 -56 15.68 -56 15 C-55.34 15 -54.68 15 -54 15 C-54 14.34 -54 13.68 -54 13 C-53.34 13 -52.68 13 -52 13 C-52 12.34 -52 11.68 -52 11 C-51.34 11 -50.68 11 -50 11 C-50 10.34 -50 9.68 -50 9 C-48.68 9 -47.36 9 -46 9 C-46 8.34 -46 7.68 -46 7 C-45.34 7 -44.68 7 -44 7 C-44 6.34 -44 5.68 -44 5 C-43.34 5 -42.68 5 -42 5 C-42 4.34 -42 3.68 -42 3 C-40.68 3 -39.36 3 -38 3 C-38 2.34 -38 1.68 -38 1 C-36.68 1 -35.36 1 -34 1 C-34 0.34 -34 -0.32 -34 -1 C-22.30728648 -5.26111903 -11.45642371 -5.3525914 0 0 Z " fill="#F2A079" transform="translate(274,281)"/>
<path d="M0 0 C0.33 0 0.66 0 1 0 C1.20622754 11.64555447 1.39235175 23.29136316 1.5625 34.9375 C1.5815999 36.24367657 1.5815999 36.24367657 1.60108566 37.57624054 C2.10796336 72.75191587 1.71629682 107.82186728 1 143 C-32 143 -65 143 -99 143 C-102.96 130.13 -106.92 117.26 -111 104 C-111.66 102.35 -112.32 100.7 -113 99 C-112.625 96.6875 -112.625 96.6875 -112 95 C-111.67 96.98 -111.34 98.96 -111 101 C-99.63163555 100.71219331 -89.06528849 99.26490602 -78.03466797 96.50537109 C-76.16496901 96.04097502 -74.28781084 95.60688584 -72.41015625 95.17578125 C-67.18059196 93.95404126 -62.77700969 92.50793009 -58 90 C-56.68 90 -55.36 90 -54 90 C-53.34 91.98 -52.68 93.96 -52 96 C-51.34 96 -50.68 96 -50 96 C-49.01 100.455 -49.01 100.455 -48 105 C-47.33468262 104.67725098 -46.66936523 104.35450195 -45.98388672 104.02197266 C-42.94939912 102.55254727 -39.91223888 101.08872958 -36.875 99.625 C-35.82828125 99.11710937 -34.7815625 98.60921875 -33.703125 98.0859375 C-32.68476563 97.59609375 -31.66640625 97.10625 -30.6171875 96.6015625 C-29.68503418 96.15119629 -28.75288086 95.70083008 -27.79248047 95.23681641 C-24.90812902 93.95930946 -22.00635872 92.95039727 -19 92 C-19.76359871 90.0804396 -20.53618478 88.16445288 -21.3125 86.25 C-21.74175781 85.18265625 -22.17101562 84.1153125 -22.61328125 83.015625 C-23.84608612 80.3347085 -25.12807487 78.2616808 -27 76 C-28.32 76.33 -29.64 76.66 -31 77 C-28.52158036 74.19503183 -25.79743793 72.67042773 -22.5 70.9375 C-19.555813 69.38230445 -16.77316705 67.84877804 -14 66 C-12.68 66 -11.36 66 -10 66 C-8.296875 68.1171875 -8.296875 68.1171875 -6.75 70.875 C-5.96882813 72.23238281 -5.96882813 72.23238281 -5.171875 73.6171875 C-4 76 -4 76 -4 78 C-3.34 78 -2.68 78 -2 78 C-2 78.66 -2 79.32 -2 80 C-1.34 80 -0.68 80 0 80 C-1.34656975 73.3895667 -3.81535981 67.93169624 -7 62 C-6.02659668 61.60973633 -5.05319336 61.21947266 -4.05029297 60.81738281 C-1.61142835 59.17092294 -1.06724923 58.30506585 -0.42486572 55.39099121 C-0.20638596 51.8905963 -0.16975665 48.4291108 -0.1953125 44.921875 C-0.18160614 43.64016418 -0.16789978 42.35845337 -0.15377808 41.03790283 C-0.11775386 37.63793281 -0.1173642 34.23886217 -0.12445068 30.83874512 C-0.1253639 27.36629162 -0.09250104 23.89417468 -0.0625 20.421875 C-0.008652 13.61453251 0.0075459 6.8075437 0 0 Z " fill="#6F47C0" transform="translate(240,354)"/>
<path d="M0 0 C0.98484375 0.01804688 1.9696875 0.03609375 2.984375 0.0546875 C4.10585937 0.08949219 4.10585937 0.08949219 5.25 0.125 C5.25 2.435 5.25 4.745 5.25 7.125 C5.99685059 7.11976318 6.74370117 7.11452637 7.51318359 7.10913086 C10.88378057 7.08839599 14.25436414 7.07535101 17.625 7.0625 C19.3884375 7.04993164 19.3884375 7.04993164 21.1875 7.03710938 C22.86972656 7.03227539 22.86972656 7.03227539 24.5859375 7.02734375 C26.14127197 7.01948853 26.14127197 7.01948853 27.72802734 7.01147461 C30.25 7.125 30.25 7.125 32.25 8.125 C32.25 8.785 32.25 9.445 32.25 10.125 C32.91 10.125 33.57 10.125 34.25 10.125 C34.66322481 14.33989311 34.79765196 16.40549506 32.18359375 19.83984375 C28.49529707 22.71288444 26.62060466 22.68064092 22 22.5 C20.68386719 22.45617187 19.36773437 22.41234375 18.01171875 22.3671875 C13.72392488 22.09113016 9.50480131 21.7221651 5.25 21.125 C5.25 22.445 5.25 23.765 5.25 25.125 C6.384375 25.11339844 7.51875 25.10179687 8.6875 25.08984375 C10.20833167 25.0804559 11.72916514 25.07135678 13.25 25.0625 C13.99378906 25.05412109 14.73757812 25.04574219 15.50390625 25.03710938 C20.51142859 25.01533754 25.31221292 25.24789308 30.25 26.125 C32.74323585 28.85197671 33.18693688 30.599474 33.625 34.25 C33.25 37.125 33.25 37.125 32.08666992 38.78637695 C29.50029728 40.67140702 27.66486985 40.4663432 24.48828125 40.41796875 C23.37001953 40.40830078 22.25175781 40.39863281 21.09960938 40.38867188 C19.93236328 40.36353516 18.76511719 40.33839844 17.5625 40.3125 C16.38365234 40.29896484 15.20480469 40.28542969 13.99023438 40.27148438 C11.07636589 40.23609326 8.16341055 40.18671809 5.25 40.125 C5.25 41.115 5.25 42.105 5.25 43.125 C5.9205542 43.09881592 6.5911084 43.07263184 7.28198242 43.0456543 C10.33358128 42.94142762 13.38480542 42.87659377 16.4375 42.8125 C17.49259766 42.77060547 18.54769531 42.72871094 19.63476562 42.68554688 C27.45567087 42.56218875 27.45567087 42.56218875 31.453125 45.39453125 C33.91496419 49.13545646 33.91496419 49.13545646 33.8125 52.125 C33.81443359 53.0840625 33.81443359 53.0840625 33.81640625 54.0625 C32.86782581 57.5166412 32.07908381 58.80010935 29.25 61.125 C24.98500843 61.75872716 20.79956421 61.59175792 16.5 61.4375 C12.4575 61.334375 8.415 61.23125 4.25 61.125 C4.25 71.355 4.25 81.585 4.25 92.125 C3.59 92.125 2.93 92.125 2.25 92.125 C2.25 92.785 2.25 93.445 2.25 94.125 C1.59 94.125 0.93 94.125 0.25 94.125 C0.25 94.785 0.25 95.445 0.25 96.125 C-1.73 96.125 -3.71 96.125 -5.75 96.125 C-5.75 95.465 -5.75 94.805 -5.75 94.125 C-7.07 94.125 -8.39 94.125 -9.75 94.125 C-9.75 93.465 -9.75 92.805 -9.75 92.125 C-10.41 92.125 -11.07 92.125 -11.75 92.125 C-11.75 88.165 -11.75 84.205 -11.75 80.125 C-11.09 80.125 -10.43 80.125 -9.75 80.125 C-9.76160156 79.51011719 -9.77320313 78.89523438 -9.78515625 78.26171875 C-9.79417969 77.45347656 -9.80320313 76.64523438 -9.8125 75.8125 C-9.82410156 75.01199219 -9.83570313 74.21148437 -9.84765625 73.38671875 C-9.75 71.125 -9.75 71.125 -8.75 68.125 C-9.82720651 66.52556177 -9.82720651 66.52556177 -11.4375 65 C-19.91145305 55.62163432 -21.10796346 43.28908745 -21.125 31.125 C-21.14949219 30.20460937 -21.17398438 29.28421875 -21.19921875 28.3359375 C-21.23501783 19.86348862 -19.15786081 11.96252341 -13.25 5.625 C-12.6828125 4.9959375 -12.115625 4.366875 -11.53125 3.71875 C-7.79892418 0.37930058 -4.96566302 -0.11823007 0 0 Z " fill="#F09F79" transform="translate(235.75,159.875)"/>
<path d="M0 0 C1.44796872 8.73952546 2.29211698 17.13911833 2 26 C1.34 26 0.68 26 0 26 C0 26.66 0 27.32 0 28 C-1.32 28 -2.64 28 -4 28 C-4 28.66 -4 29.32 -4 30 C-5.98 30 -7.96 30 -10 30 C-10 30.66 -10 31.32 -10 32 C-11.98 32 -13.96 32 -16 32 C-16 35.3 -16 38.6 -16 42 C-16.66 42 -17.32 42 -18 42 C-18 45.96 -18 49.92 -18 54 C-18.66 54 -19.32 54 -20 54 C-20 51.36 -20 48.72 -20 46 C-20.66 46 -21.32 46 -22 46 C-22 41.38 -22 36.76 -22 32 C-23.32 32 -24.64 32 -26 32 C-26 31.34 -26 30.68 -26 30 C-29.96 30 -33.92 30 -38 30 C-38 29.34 -38 28.68 -38 28 C-39.98 28 -41.96 28 -44 28 C-43.35588614 22.44686304 -42.49942196 16.98744364 -41.4375 11.5 C-41.22963867 10.40945312 -41.22963867 10.40945312 -41.01757812 9.296875 C-40.68063335 7.53081963 -40.34064317 5.76534574 -40 4 C-36.87709365 4.48578543 -34.00419641 4.9986012 -31 6 C-19.50468896 6.7483607 -9.50969314 0 0 0 Z " fill="#F3A079" transform="translate(182,182)"/>
<path d="M0 0 C2 3 2 3 2 6 C14.44589598 5.47174065 14.44589598 5.47174065 26.70703125 3.41015625 C30.78364941 2.68094857 34.87524131 2.84203052 39 3 C39 4.32 39 5.64 39 7 C39.66 7 40.32 7 41 7 C41.66 10.63 42.32 14.26 43 18 C34.76514028 20.97673772 27.58550107 21.36935736 18.875 21.1875 C17.01101562 21.16719727 17.01101562 21.16719727 15.109375 21.14648438 C12.07245169 21.11144295 9.03646533 21.06231433 6 21 C5.73445312 20.19175781 5.46890625 19.38351562 5.1953125 18.55078125 C4.84210938 17.48214844 4.48890625 16.41351563 4.125 15.3125 C3.77695313 14.25675781 3.42890625 13.20101563 3.0703125 12.11328125 C2.06016006 9.05091945 2.06016006 9.05091945 0.8671875 6.35546875 C0 4 0 4 0 0 Z " fill="#4D2415" transform="translate(127,449)"/>
<path d="M0 0 C1.95703125 2.484375 1.95703125 2.484375 3.8125 5.75 C4.43769531 6.81734375 5.06289062 7.8846875 5.70703125 8.984375 C7 12 7 12 7.0703125 14.16015625 C5.38554979 17.05622646 2.96465323 18.09666452 0.0625 19.6875 C-1.01902344 20.28949219 -2.10054687 20.89148438 -3.21484375 21.51171875 C-4.80047383 22.35901898 -6.39198497 23.19599248 -8 24 C-8 23.34 -8 22.68 -8 22 C-8.66 22 -9.32 22 -10 22 C-11.98 18.04 -13.96 14.08 -16 10 C-17.65 10.33 -19.3 10.66 -21 11 C-18.52158036 8.19503183 -15.79743793 6.67042773 -12.5 4.9375 C-3.15267176 0 -3.15267176 0 0 0 Z " fill="#4F2720" transform="translate(230,420)"/>
<path d="M0 0 C0.66 1.98 1.32 3.96 2 6 C2.66 6 3.32 6 4 6 C5.31626692 9.61973402 6 12.09567131 6 16 C3.75267898 16.84124316 1.50261215 17.67314832 -0.75 18.5 C-1.38421875 18.73847656 -2.0184375 18.97695313 -2.671875 19.22265625 C-6.03286607 20.44801758 -8.36871587 21 -12 21 C-12.67467562 19.25307205 -13.33944156 17.50231475 -14 15.75 C-14.37125 14.77546875 -14.7425 13.8009375 -15.125 12.796875 C-16 10 -16 10 -16 6 C-15.34 6 -14.68 6 -14 6 C-14 5.34 -14 4.68 -14 4 C-12.42032193 3.32471777 -10.83608097 2.66010306 -9.25 2 C-8.36828125 1.62875 -7.4865625 1.2575 -6.578125 0.875 C-4 0 -4 0 0 0 Z " fill="#50261E" transform="translate(186,444)"/>
<path d="M0 0 C0.495 0.99 0.495 0.99 1 2 C0.07421875 3.9453125 0.07421875 3.9453125 -1.3125 6.125 C-1.76238281 6.84945312 -2.21226562 7.57390625 -2.67578125 8.3203125 C-3.11277344 8.87460938 -3.54976562 9.42890625 -4 10 C-4.66 10 -5.32 10 -6 10 C-6 10.66 -6 11.32 -6 12 C-12.61176229 14.78389991 -17.37366161 16.03609668 -24.5 14 C-29.06888901 11.87614003 -31.95891529 7.89147922 -35 4 C-34.67 3.34 -34.34 2.68 -34 2 C-33.113125 2.495 -32.22625 2.99 -31.3125 3.5 C-22.6522588 7.18147905 -12.46836801 5.39982362 -4 2 C-2.65803449 1.35088461 -1.32174952 0.68934782 0 0 Z " fill="#F15A56" transform="translate(178,148)"/>
<path d="M0 0 C0.825 0.103125 1.65 0.20625 2.5 0.3125 C3.49 1.7975 3.49 1.7975 4.5 3.3125 C4.17 4.6325 3.84 5.9525 3.5 7.3125 C11.42 6.8175 11.42 6.8175 19.5 6.3125 C19.995 8.7875 19.995 8.7875 20.5 11.3125 C19.84 11.3125 19.18 11.3125 18.5 11.3125 C18.5 9.9925 18.5 8.6725 18.5 7.3125 C17.07530396 7.5916626 17.07530396 7.5916626 15.62182617 7.87646484 C6.13099587 9.71071045 -3.37550627 11.26851955 -12.9465332 12.62011719 C-15.19763878 12.93893593 -17.44743896 13.26604142 -19.69726562 13.59375 C-33.01649874 15.50939162 -46.15617299 16.49255043 -59.625 16.5 C-60.82898438 16.51224609 -62.03296875 16.52449219 -63.2734375 16.53710938 C-64.42328125 16.53904297 -65.573125 16.54097656 -66.7578125 16.54296875 C-67.7905127 16.54707764 -68.82321289 16.55118652 -69.88720703 16.55541992 C-72.5 16.3125 -72.5 16.3125 -75.5 14.3125 C-74.86537842 14.33344727 -74.23075684 14.35439453 -73.5769043 14.37597656 C-58.8481291 14.78877416 -44.55541148 14.16256267 -29.9375 12.4375 C-29.19092133 12.35036743 -28.44434265 12.26323486 -27.67514038 12.17346191 C-19.5501714 11.21222885 -11.48958973 10.11327815 -3.5 8.3125 C-3.809375 6.889375 -3.809375 6.889375 -4.125 5.4375 C-4.24875 4.40625 -4.3725 3.375 -4.5 2.3125 C-2.5 0.3125 -2.5 0.3125 0 0 Z " fill="#8463C3" transform="translate(176.5,296.6875)"/>
<path d="M0 0 C-1 3 -1 3 -3.14453125 4.1328125 C-4.02496094 4.46023437 -4.90539062 4.78765625 -5.8125 5.125 C-6.68519531 5.45757812 -7.55789062 5.79015625 -8.45703125 6.1328125 C-15.90224754 8.67173418 -24.92263005 9.71035334 -32.3125 6.5 C-33.199375 6.005 -34.08625 5.51 -35 5 C-35 4.34 -35 3.68 -35 3 C-34.29391602 2.94465088 -33.58783203 2.88930176 -32.86035156 2.83227539 C-29.65661463 2.57916858 -26.45331489 2.32089096 -23.25 2.0625 C-22.13882813 1.97548828 -21.02765625 1.88847656 -19.8828125 1.79882812 C-18.81289062 1.71181641 -17.74296875 1.62480469 -16.640625 1.53515625 C-15.65610352 1.456604 -14.67158203 1.37805176 -13.65722656 1.29711914 C-11.07068706 1.0676446 -11.07068706 1.0676446 -8.88183594 0.47045898 C-5.93671529 -0.26582118 -3.01832771 -0.05804476 0 0 Z " fill="#E5DEEB" transform="translate(179,146)"/>
<path d="M0 0 C0.33 0 0.66 0 1 0 C1 25.08 1 50.16 1 76 C-1.35337223 72.86217036 -2.99684205 70.22270281 -4.6875 66.75 C-5.34298828 65.41195312 -5.34298828 65.41195312 -6.01171875 64.046875 C-6.33785156 63.37140625 -6.66398438 62.6959375 -7 62 C-6.02659668 61.60973633 -5.05319336 61.21947266 -4.05029297 60.81738281 C-1.61142835 59.17092294 -1.06724923 58.30506585 -0.42486572 55.39099121 C-0.20638596 51.8905963 -0.16975665 48.4291108 -0.1953125 44.921875 C-0.18160614 43.64016418 -0.16789978 42.35845337 -0.15377808 41.03790283 C-0.11775386 37.63793281 -0.1173642 34.23886217 -0.12445068 30.83874512 C-0.1253639 27.36629162 -0.09250104 23.89417468 -0.0625 20.421875 C-0.008652 13.61453251 0.0075459 6.8075437 0 0 Z " fill="#563968" transform="translate(240,354)"/>
<path d="M0 0 C0 0.66 0 1.32 0 2 C-1.32 2 -2.64 2 -4 2 C-4 2.66 -4 3.32 -4 4 C-5.98 4 -7.96 4 -10 4 C-10 4.66 -10 5.32 -10 6 C-11.98 6 -13.96 6 -16 6 C-16 9.3 -16 12.6 -16 16 C-16.66 16 -17.32 16 -18 16 C-18 19.96 -18 23.92 -18 28 C-18.66 28 -19.32 28 -20 28 C-20 25.36 -20 22.72 -20 20 C-20.66 20 -21.32 20 -22 20 C-22 15.38 -22 10.76 -22 6 C-23.32 6 -24.64 6 -26 6 C-26 5.34 -26 4.68 -26 4 C-23.525 4.495 -23.525 4.495 -21 5 C-20.67 7.97 -20.34 10.94 -20 14 C-19.67 14 -19.34 14 -19 14 C-18.67 10.7 -18.34 7.4 -18 4 C-16.62714844 3.69255859 -16.62714844 3.69255859 -15.2265625 3.37890625 C-14.03804687 3.10949219 -12.84953125 2.84007812 -11.625 2.5625 C-9.84996094 2.16224609 -9.84996094 2.16224609 -8.0390625 1.75390625 C-0.96891192 0 -0.96891192 0 0 0 Z " fill="#C98692" transform="translate(182,208)"/>
<path d="M0 0 C1.67542976 0.28604898 3.34385343 0.61781233 5 1 C4.953125 2.79296875 4.953125 2.79296875 4 5 C1.55231682 6.32831587 -0.66664633 7.34191797 -3.25 8.3125 C-3.91902344 8.58900391 -4.58804688 8.86550781 -5.27734375 9.15039062 C-9.22424025 10.68960272 -11.93193688 11.3481372 -16 10 C-15.9375 8.16796875 -15.9375 8.16796875 -15 6 C-12.62400313 4.89813145 -10.48144568 4.07207639 -8 3.3125 C-3.66482866 2.22143978 -3.66482866 2.22143978 0 0 Z " fill="#150A09" transform="translate(137,97)"/>
<path d="M0 0 C6.95857074 0.44894005 13.32972915 2.01762044 20 4 C20 5.65 20 7.3 20 9 C13.04339229 8.42978625 6.68572695 6.98697306 0 5 C-0.5625 3.0625 -0.5625 3.0625 -1 1 C-0.67 0.67 -0.34 0.34 0 0 Z " fill="#150C0A" transform="translate(172,95)"/>
<path d="M0 0 C12.87 0 25.74 0 39 0 C38.67 0.66 38.34 1.32 38 2 C29.42 2 20.84 2 12 2 C12 2.99 12 3.98 12 5 C4.66666667 5.36666667 4.66666667 5.36666667 1.5 3.625 C0 2 0 2 0 0 Z " fill="#D59576" transform="translate(227,219)"/>
<path d="M0 0 C4.09225087 4.09225087 4.24807253 9.88984756 4.27734375 15.40869141 C4.26832031 16.16069824 4.25929687 16.91270508 4.25 17.6875 C4.24613281 18.47044434 4.24226562 19.25338867 4.23828125 20.06005859 C4.14320075 26.50044215 3.38285909 32.70305235 2 39 C1.34 39 0.68 39 0 39 C-0.33 39.66 -0.66 40.32 -1 41 C-0.7834375 39.2365625 -0.7834375 39.2365625 -0.5625 37.4375 C-0.47226563 36.69757813 -0.38203125 35.95765625 -0.2890625 35.1953125 C-0.05191499 33.39427334 0.24680417 31.60144303 0.5625 29.8125 C1.60047846 20.76725916 1.12522345 12.18085436 -0.66015625 3.265625 C-0.77230469 2.51796875 -0.88445312 1.7703125 -1 1 C-0.67 0.67 -0.34 0.34 0 0 Z " fill="#0D0C13" transform="translate(217,62)"/>
<path d="M0 0 C3.91188434 3.35304372 6.23624331 7.20478649 8 12 C8.25 15.5 8.25 15.5 8 18 C7.34 18 6.68 18 6 18 C6 17.34 6 16.68 6 16 C5.34 16 4.68 16 4 16 C2.4921875 13.8828125 2.4921875 13.8828125 0.875 11.125 C0.33617187 10.22007812 -0.20265625 9.31515625 -0.7578125 8.3828125 C-2 6 -2 6 -2 4 C-2.66 3.67 -3.32 3.34 -4 3 C-2.68 2.01 -1.36 1.02 0 0 Z " fill="#A07FD9" transform="translate(232,416)"/>
<path d="M0 0 C7.92 0.33 15.84 0.66 24 1 C23.67 2.32 23.34 3.64 23 5 C11.615 4.505 11.615 4.505 0 4 C0 2.68 0 1.36 0 0 Z " fill="#FBEFE4" transform="translate(241,181)"/>
<path d="M0 0 C18.81 0.495 18.81 0.495 38 1 C38 1.33 38 1.66 38 2 C29.75 2 21.5 2 13 2 C12.67 3.32 12.34 4.64 12 6 C10.56163249 5.88541307 9.12429034 5.75790884 7.6875 5.625 C6.88699219 5.55539063 6.08648437 5.48578125 5.26171875 5.4140625 C3 5 3 5 0 3 C0 2.01 0 1.02 0 0 Z " fill="#D7815C" transform="translate(228,198)"/>
<path d="M0 0 C2 3 2 3 2 6 C14.60763432 5.51460996 14.60763432 5.51460996 27.01953125 3.40234375 C29 3 29 3 33 3 C33 3.66 33 4.32 33 5 C31.02 5 29.04 5 27 5 C27 5.66 27 6.32 27 7 C25.2984375 7.2165625 25.2984375 7.2165625 23.5625 7.4375 C20.19222799 7.61171478 20.19222799 7.61171478 19 9 C16.98035801 9.07244053 14.95832876 9.08377188 12.9375 9.0625 C11.28041016 9.04896484 11.28041016 9.04896484 9.58984375 9.03515625 C8.73519531 9.02355469 7.88054687 9.01195312 7 9 C7 8.34 7 7.68 7 7 C5.02 7.33 3.04 7.66 1 8 C0.67 5.36 0.34 2.72 0 0 Z " fill="#5F3967" transform="translate(127,449)"/>
<path d="M0 0 C13.86 0.495 13.86 0.495 28 1 C28 1.33 28 1.66 28 2 C23.05 2 18.1 2 13 2 C13.33 3.65 13.66 5.3 14 7 C12.04020573 6.71831703 10.08217622 6.42433283 8.125 6.125 C6.48917969 5.88136719 6.48917969 5.88136719 4.8203125 5.6328125 C2 5 2 5 0 3 C0 2.01 0 1.02 0 0 Z " fill="#D3815E" transform="translate(228,179)"/>
<path d="M0 0 C8.25 0 16.5 0 25 0 C25 1.32 25 2.64 25 4 C16.75 3.67 8.5 3.34 0 3 C0 2.01 0 1.02 0 0 Z " fill="#F5EEE1" transform="translate(241,200)"/>
<path d="M0 0 C0.54140625 0.44988281 1.0828125 0.89976563 1.640625 1.36328125 C-2.0241817 2.58488348 -2.84569184 1.99330849 -6.296875 0.48828125 C-10.96719563 -1.52636687 -14.72105212 -2.78460989 -19.8359375 -2.6640625 C-20.67125 -2.65181641 -21.5065625 -2.63957031 -22.3671875 -2.62695312 C-24.11987118 -2.59163786 -25.87248254 -2.55254157 -27.625 -2.50976562 C-28.87410156 -2.49333008 -28.87410156 -2.49333008 -30.1484375 -2.4765625 C-31.28853271 -2.45130493 -31.28853271 -2.45130493 -32.45166016 -2.42553711 C-34.359375 -2.63671875 -34.359375 -2.63671875 -36.359375 -4.63671875 C-24.83425548 -7.36285279 -10.00520767 -6.9406987 0 0 Z " fill="#101217" transform="translate(183.359375,29.63671875)"/>
<path d="M0 0 C0 0.66 0 1.32 0 2 C-0.66 2 -1.32 2 -2 2 C-1.690625 2.78375 -1.38125 3.5675 -1.0625 4.375 C0.26335807 8.89851578 0.64811085 13.31431814 1 18 C0.34 18 -0.32 18 -1 18 C-1.33 17.01 -1.66 16.02 -2 15 C-2.66 14.67 -3.32 14.34 -4 14 C-4 12.02 -4 10.04 -4 8 C-4.66 8 -5.32 8 -6 8 C-6 6.68 -6 5.36 -6 4 C-7.65 4 -9.3 4 -11 4 C-7.61125486 1.74083657 -4.15175481 0 0 0 Z " fill="#8D68C2" transform="translate(172,448)"/>
<path d="M0 0 C3.875 1.875 3.875 1.875 5 3 C7.52596259 3.23653523 10.03107207 3.42173692 12.5625 3.5625 C13.27341797 3.60568359 13.98433594 3.64886719 14.71679688 3.69335938 C16.47761912 3.79971777 18.2387832 3.90038846 20 4 C20 4.33 20 4.66 20 5 C16.10895018 5.43633604 12.2169644 5.86305556 8.32397461 6.28173828 C6.36584559 6.49421156 4.40849311 6.71380351 2.45117188 6.93359375 C-5.73601909 7.80856072 -13.76764803 8.18830753 -22 8 C-22 7.67 -22 7.34 -22 7 C-19.36 7 -16.72 7 -14 7 C-14 6.34 -14 5.68 -14 5 C-13.14728516 5.03480469 -13.14728516 5.03480469 -12.27734375 5.0703125 C-7.07441352 5.19191688 -2.92687757 4.67723492 2 3 C1.34 2.67 0.68 2.34 0 2 C0 1.34 0 0.68 0 0 Z " fill="#DA8E6C" transform="translate(278,285)"/>
<path d="M0 0 C2.61580479 0.3269756 4.64078137 0.82039068 7 2 C6.125 7.875 6.125 7.875 5 9 C2.0625 9.1875 2.0625 9.1875 -1 9 C-1.66 8.34 -2.32 7.68 -3 7 C-2.67028521 3.70285207 -2.3773161 2.3773161 0 0 Z " fill="#090602" transform="translate(172,107)"/>
<path d="M0 0 C0.495 0.99 0.495 0.99 1 2 C0.0625 4.125 0.0625 4.125 -1 6 C-1.495 5.01 -1.495 5.01 -2 4 C-2.81404297 4.41572266 -2.81404297 4.41572266 -3.64453125 4.83984375 C-4.35996094 5.20207031 -5.07539063 5.56429687 -5.8125 5.9375 C-6.52019531 6.29714844 -7.22789062 6.65679687 -7.95703125 7.02734375 C-15.92353933 10.82019368 -27.73207121 10.03742946 -36.0625 7.5 C-37.38424056 7.02496512 -38.70174068 6.53589083 -40 6 C-40 5.01 -40 4.02 -40 3 C-39.09507812 3.30744141 -39.09507812 3.30744141 -38.171875 3.62109375 C-36.97304687 4.02521484 -36.97304687 4.02521484 -35.75 4.4375 C-34.96109375 4.70433594 -34.1721875 4.97117188 -33.359375 5.24609375 C-24.36224508 8.12100447 -15.66664224 7.88616791 -7 4 C-4.58904444 2.75664214 -2.31165952 1.42634311 0 0 Z " fill="#DB8861" transform="translate(181,180)"/>
<path d="M0 0 C3.0625 0.1875 3.0625 0.1875 5.0625 2.1875 C4.875 4.6875 4.875 4.6875 4.0625 7.1875 C1.0625 9.1875 1.0625 9.1875 -1.0625 8.875 C-2.9375 8.1875 -2.9375 8.1875 -3.9375 7.1875 C-4.0625 4.1875 -4.0625 4.1875 -3.9375 1.1875 C-2.9375 0.1875 -2.9375 0.1875 0 0 Z " fill="#0F0703" transform="translate(139.9375,109.8125)"/>
<path d="M0 0 C0.66 0.33 1.32 0.66 2 1 C2 10.57 2 20.14 2 30 C-1.06584365 25.91220847 -1.37577471 25.39228852 -1.328125 20.68359375 C-1.32296875 19.67232422 -1.3178125 18.66105469 -1.3125 17.61914062 C-1.291875 16.56919922 -1.27125 15.51925781 -1.25 14.4375 C-1.24484375 13.38369141 -1.2396875 12.32988281 -1.234375 11.24414062 C-1.15494363 3.46483089 -1.15494363 3.46483089 0 0 Z " fill="#101418" transform="translate(93,68)"/>
<path d="M0 0 C2.5625 0.1875 2.5625 0.1875 4.5625 2.1875 C4.00694444 6.74305556 4.00694444 6.74305556 2.5625 8.1875 C0.125 8.375 0.125 8.375 -2.4375 8.1875 C-3.0975 7.5275 -3.7575 6.8675 -4.4375 6.1875 C-3.71780303 0.28598485 -3.71780303 0.28598485 0 0 Z " fill="#7E5DC2" transform="translate(194.4375,375.8125)"/>
<path d="M0 0 C1.875 0.6875 1.875 0.6875 2.875 1.6875 C2.91580783 3.68708364 2.91754356 5.68795254 2.875 7.6875 C0 8.3125 0 8.3125 -3.125 8.6875 C-5.125 6.6875 -5.125 6.6875 -5.4375 4.1875 C-5.334375 3.3625 -5.23125 2.5375 -5.125 1.6875 C-2.125 -0.3125 -2.125 -0.3125 0 0 Z " fill="#8968C5" transform="translate(174.125,250.3125)"/>
<path d="M0 0 C2.33944736 0.28730055 4.6739143 0.61936779 7 1 C7 2.98 7 4.96 7 7 C4.69 7.33 2.38 7.66 0 8 C-0.38063221 5.6739143 -0.71269945 3.33944736 -1 1 C-0.67 0.67 -0.34 0.34 0 0 Z " fill="#9273D2" transform="translate(204,418)"/>
<path d="M0 0 C2.475 0.495 2.475 0.495 5 1 C5.33 3.97 5.66 6.94 6 10 C6.66 10 7.32 10 8 10 C8 14.62 8 19.24 8 24 C7.34 24 6.68 24 6 24 C6 21.36 6 18.72 6 16 C5.34 16 4.68 16 4 16 C4 11.38 4 6.76 4 2 C2.68 2 1.36 2 0 2 C0 1.34 0 0.68 0 0 Z " fill="#D4897D" transform="translate(156,212)"/>
<path d="M0 0 C0.66 0 1.32 0 2 0 C1.97679687 0.61488281 1.95359375 1.22976562 1.9296875 1.86328125 C1.91164062 2.67152344 1.89359375 3.47976562 1.875 4.3125 C1.85179687 5.11300781 1.82859375 5.91351563 1.8046875 6.73828125 C1.84182678 9.28388576 1.84182678 9.28388576 4 12 C6.43693311 12.36416047 6.43693311 12.36416047 9.125 12.1875 C10.49011719 12.14689453 10.49011719 12.14689453 11.8828125 12.10546875 C12.58148438 12.07066406 13.28015625 12.03585938 14 12 C14 12.66 14 13.32 14 14 C13.34 14 12.68 14 12 14 C12 14.66 12 15.32 12 16 C10.02 16 8.04 16 6 16 C6 15.34 6 14.68 6 14 C4.68 14 3.36 14 2 14 C2 13.34 2 12.68 2 12 C1.34 12 0.68 12 0 12 C0 8.04 0 4.08 0 0 Z " fill="#D68C7D" transform="translate(224,240)"/>
<path d="M0 0 C4.29 0.33 8.58 0.66 13 1 C12.67 2.32 12.34 3.64 12 5 C4.66666667 5.36666667 4.66666667 5.36666667 1.5 3.625 C0 2 0 2 0 0 Z " fill="#D67F5B" transform="translate(227,219)"/>
<path d="M0 0 C-3.1598951 1.88451576 -5.13111479 2.17717906 -8.765625 1.7578125 C-9.65507812 1.66113281 -10.54453125 1.56445312 -11.4609375 1.46484375 C-12.38132813 1.35269531 -13.30171875 1.24054688 -14.25 1.125 C-15.65378906 0.96837891 -15.65378906 0.96837891 -17.0859375 0.80859375 C-19.39206426 0.54974279 -21.69634497 0.27986553 -24 0 C-17.24741568 -4.50172288 -7.52011961 -1.42513265 0 0 Z " fill="#170B0A" transform="translate(180,80)"/>
<path d="M0 0 C3.31238668 3.31238668 3.54465634 7.44656336 4 12 C3.8785603 16.69243013 3.49758052 21.33350157 3 26 C2.67 26 2.34 26 2 26 C1.86722656 24.69804688 1.73445312 23.39609375 1.59765625 22.0546875 C1.41936886 20.32811487 1.24097798 18.60155293 1.0625 16.875 C0.93198242 15.59109375 0.93198242 15.59109375 0.79882812 14.28125 C0.42044371 10.63754818 0.00969739 7.05481135 -0.62890625 3.4453125 C-0.75136719 2.63835937 -0.87382812 1.83140625 -1 1 C-0.67 0.67 -0.34 0.34 0 0 Z " fill="#18171D" transform="translate(217,62)"/>
<path d="M0 0 C1.485 0.99 1.485 0.99 3 2 C3 2.66 3 3.32 3 4 C6.3 4 9.6 4 13 4 C13.33 3.01 13.66 2.02 14 1 C14.33 2.32 14.66 3.64 15 5 C11.18133843 6.79701721 8.20983641 7.7016394 4 7 C1.95655626 5.15983077 0.60694196 3.26862395 -1 1 C-0.67 0.67 -0.34 0.34 0 0 Z " fill="#15070A" transform="translate(202,104)"/>
<path d="M0 0 C3.23705547 0.37805027 4.85358964 1.42495974 7.48828125 3.3125 C8.27847656 3.869375 9.06867188 4.42625 9.8828125 5 C10.47449219 5.433125 11.06617188 5.86625 11.67578125 6.3125 C10.68578125 6.9725 9.69578125 7.6325 8.67578125 8.3125 C7.84433594 7.6628125 7.84433594 7.6628125 6.99609375 7 C6.27164063 6.443125 5.5471875 5.88625 4.80078125 5.3125 C4.08148438 4.755625 3.3621875 4.19875 2.62109375 3.625 C0.79057275 2.12606623 0.79057275 2.12606623 -1.32421875 2.3125 C-1.98421875 3.9625 -2.64421875 5.6125 -3.32421875 7.3125 C-3.65421875 7.3125 -3.98421875 7.3125 -4.32421875 7.3125 C-4.44921875 4.9375 -4.44921875 4.9375 -4.32421875 2.3125 C-2.32421875 0.3125 -2.32421875 0.3125 0 0 Z " fill="#160A0B" transform="translate(128.32421875,65.6875)"/>
<path d="M0 0 C0 0.33 0 0.66 0 1 C-1.17755859 1.27263672 -1.17755859 1.27263672 -2.37890625 1.55078125 C-8.19425571 2.94218388 -13.60004859 4.42275046 -19 7 C-19 6.01 -19 5.02 -19 4 C-6.51480638 -1.92482916 -6.51480638 -1.92482916 0 0 Z " fill="#0E1216" transform="translate(126,41)"/>
<path d="M0 0 C2 2 2 2 2 5 C3.32 5 4.64 5 6 5 C6 4.34 6 3.68 6 3 C6.66 3 7.32 3 8 3 C8.33 2.01 8.66 1.02 9 0 C8.125 5.875 8.125 5.875 7 7 C4.0625 7.1875 4.0625 7.1875 1 7 C0.34 6.34 -0.32 5.68 -1 5 C-0.625 2.375 -0.625 2.375 0 0 Z " fill="#2B1914" transform="translate(170,109)"/>
<path d="M0 0 C2.88437779 1.29299694 4.87219421 2.65941363 7 5 C5.8553125 4.9071875 5.8553125 4.9071875 4.6875 4.8125 C1.52219632 5.03333514 1.01513783 5.69698534 -1 8 C-1.66 8 -2.32 8 -3 8 C-1.125 1.125 -1.125 1.125 0 0 Z " fill="#C1816B" transform="translate(127,67)"/>
<path d="M0 0 C0.99 0.66 1.98 1.32 3 2 C2.67 4.64 2.34 7.28 2 10 C0.62437146 8.71034824 -0.70766393 7.37310707 -2 6 C-2 5.34 -2 4.68 -2 4 C-2.66 3.67 -3.32 3.34 -4 3 C-2.68 2.01 -1.36 1.02 0 0 Z " fill="#8F67C0" transform="translate(232,416)"/>
<path d="M0 0 C2 3 2 3 2 6 C5.465 5.505 5.465 5.505 9 5 C9 5.66 9 6.32 9 7 C6.36 7.99 3.72 8.98 1 10 C-1.125 3.375 -1.125 3.375 0 0 Z " fill="#191214" transform="translate(95,100)"/>
<path d="M0 0 C2.0625 0.4375 2.0625 0.4375 4 1 C3.67 2.65 3.34 4.3 3 6 C1.35 5.67 -0.3 5.34 -2 5 C-1.125 1.125 -1.125 1.125 0 0 Z " fill="#AD8CE3" transform="translate(175,298)"/>
<path d="M0 0 C4.99911924 0.47610659 7.97832683 2.03162219 12 5 C11.34 5.66 10.68 6.32 10 7 C10 6.34 10 5.68 10 5 C8.02 5 6.04 5 4 5 C4 4.34 4 3.68 4 3 C2.68 2.34 1.36 1.68 0 1 C0 0.67 0 0.34 0 0 Z " fill="#C68760" transform="translate(180,83)"/>
<path d="M0 0 C2 2 2 2 2 6 C2.66 6 3.32 6 4 6 C4 6.66 4 7.32 4 8 C1.36 8 -1.28 8 -4 8 C-3.34 7.67 -2.68 7.34 -2 7 C-2.33 5.35 -2.66 3.7 -3 2 C-2.34 2.33 -1.68 2.66 -1 3 C-1 3.99 -1 4.98 -1 6 C-0.34 6 0.32 6 1 6 C0.67 4.02 0.34 2.04 0 0 Z " fill="#794FAA" transform="translate(172,460)"/>
<path d="M0 0 C1.98 0.495 1.98 0.495 4 1 C3.67 2.65 3.34 4.3 3 6 C1.68 5.67 0.36 5.34 -1 5 C-0.67 3.35 -0.34 1.7 0 0 Z " fill="#AE90E9" transform="translate(193,377)"/>
<path d="M0 0 C1.46555316 0.73579212 2.92224487 1.48925126 4.375 2.25 C5.18710938 2.66765625 5.99921875 3.0853125 6.8359375 3.515625 C9.20801205 5.14267975 9.97094804 6.35386639 11 9 C8.13132769 7.61735163 5.43975968 6.07851447 2.75 4.375 C2.04359375 3.92898437 1.3371875 3.48296875 0.609375 3.0234375 C0.07828125 2.68570313 -0.4528125 2.34796875 -1 2 C-0.67 1.34 -0.34 0.68 0 0 Z " fill="#121217" transform="translate(186,31)"/>
<path d="M0 0 C0.33 0 0.66 0 1 0 C1.36717663 7.4659249 1.36717663 7.4659249 -0.375 10 C-2 11 -2 11 -4 11 C-2.7874262 7.27566618 -1.49140021 3.62197194 0 0 Z " fill="#C9856A" transform="translate(123,75)"/>
<path d="M0 0 C5.94 0.99 5.94 0.99 12 2 C11.34 2.66 10.68 3.32 10 4 C7.8359375 3.9765625 7.8359375 3.9765625 5.375 3.625 C4.55773437 3.51414062 3.74046875 3.40328125 2.8984375 3.2890625 C2.27195313 3.19367188 1.64546875 3.09828125 1 3 C0.67 2.01 0.34 1.02 0 0 Z " fill="#190E0E" transform="translate(146,75)"/>
<path d="M0 0 C0.33 1.32 0.66 2.64 1 4 C-0.65 5.32 -2.3 6.64 -4 8 C-4.66 6.68 -5.32 5.36 -6 4 C-4.02 2.68 -2.04 1.36 0 0 Z " fill="#5F3866" transform="translate(239,412)"/>
<path d="M0 0 C1.485 0.99 1.485 0.99 3 2 C3.36328125 3.875 3.36328125 3.875 3.3125 6 C3.30863281 6.70125 3.30476562 7.4025 3.30078125 8.125 C3 10 3 10 1 12 C0.77213542 9.98177083 0.54427083 7.96354167 0.31640625 5.9453125 C0.08707039 3.92595684 0.08707039 3.92595684 -1 2 C-0.67 1.34 -0.34 0.68 0 0 Z " fill="#DE9474" transform="translate(219,112)"/>
<path d="M0 0 C-0.54226981 3.79588866 -2.20127563 5.47211993 -5 8 C-5.66 7.67 -6.32 7.34 -7 7 C-6.34 6.34 -5.68 5.68 -5 5 C-5.33 4.34 -5.66 3.68 -6 3 C-2.25 0 -2.25 0 0 0 Z " fill="#6E48AD" transform="translate(232,438)"/>
<path d="M0 0 C1.32 0 2.64 0 4 0 C4 0.66 4 1.32 4 2 C2.04072937 3.7143618 0.04119788 5.38405168 -2 7 C-2.66 6.67 -3.32 6.34 -4 6 C-4 5.34 -4 4.68 -4 4 C-3.34 4 -2.68 4 -2 4 C-2 3.34 -2 2.68 -2 2 C-1.34 2 -0.68 2 0 2 C0 1.34 0 0.68 0 0 Z " fill="#DE917B" transform="translate(232,284)"/>
<path d="M0 0 C2.64 0.99 5.28 1.98 8 3 C7.01 3.33 6.02 3.66 5 4 C5.66 5.65 6.32 7.3 7 9 C4.03595495 6.19195732 1.55500981 3.81684226 0 0 Z " fill="#E56157" transform="translate(143,150)"/>
<path d="M0 0 C1.32 0 2.64 0 4 0 C4 1.98 4 3.96 4 6 C3.01 6 2.02 6 1 6 C0.67 4.02 0.34 2.04 0 0 Z " fill="#51252E" transform="translate(170,450)"/>
<path d="M0 0 C-1.78174788 2.30142435 -3.16304165 3.80034391 -6.046875 4.48828125 C-8.0246611 4.72323102 -10.01271872 4.86751458 -12 5 C-8.77464852 1.23708994 -4.90542108 -1.63514036 0 0 Z " fill="#846AC0" transform="translate(96,236)"/>
<path d="M0 0 C2.64752004 2.57784846 4.94432065 4.91648098 7 8 C6.01 8 5.02 8 4 8 C4 7.34 4 6.68 4 6 C3.34 6 2.68 6 2 6 C2 5.34 2 4.68 2 4 C1.34 4 0.68 4 0 4 C0 2.68 0 1.36 0 0 Z " fill="#EDDEE0" transform="translate(128,172)"/>
<path d="M0 0 C-0.33 0.99 -0.66 1.98 -1 3 C-4.3 2.67 -7.6 2.34 -11 2 C-6.78370866 -0.10814567 -4.60209225 -0.17700355 0 0 Z " fill="#F3C2B7" transform="translate(179,146)"/>
<path d="M0 0 C0 0.66 0 1.32 0 2 C-0.66 2 -1.32 2 -2 2 C-2.33 3.32 -2.66 4.64 -3 6 C-3.66 5.34 -4.32 4.68 -5 4 C-7.10820797 4.3185177 -7.10820797 4.3185177 -9 5 C-6.45523312 2.20075644 -3.92372883 0 0 0 Z " fill="#6B4A9C" transform="translate(218,426)"/>
<path d="M0 0 C1 2 1 2 0.3125 4.5625 C-1 7 -1 7 -3.125 7.8125 C-3.74375 7.874375 -4.3625 7.93625 -5 8 C-3.8141763 4.62496331 -2.72426311 2.35277269 0 0 Z " fill="#856EC6" transform="translate(67,255)"/>
<path d="M0 0 C5.94 1.485 5.94 1.485 12 3 C12 3.33 12 3.66 12 4 C7.45194365 4.17835515 4.1205746 3.99785435 0 2 C0 1.34 0 0.68 0 0 Z " fill="#BE7F5C" transform="translate(139,75)"/>
<path d="M0 0 C1.98 0.495 1.98 0.495 4 1 C3.67 2.32 3.34 3.64 3 5 C1.68 4.67 0.36 4.34 -1 4 C-0.67 2.68 -0.34 1.36 0 0 Z " fill="#AF8FE2" transform="translate(172,252)"/>
<path d="M0 0 C3 1 3 1 5 4 C4.67 4.99 4.34 5.98 4 7 C3.67 6.34 3.34 5.68 3 5 C2.01 5.495 2.01 5.495 1 6 C0.67 4.02 0.34 2.04 0 0 Z " fill="#927CD1" transform="translate(194,214)"/>
<path d="M0 0 C1.4540625 0.0309375 1.4540625 0.0309375 2.9375 0.0625 C2.9375 0.7225 2.9375 1.3825 2.9375 2.0625 C1.2875 2.0625 -0.3625 2.0625 -2.0625 2.0625 C-2.3925 3.3825 -2.7225 4.7025 -3.0625 6.0625 C-3.44468767 4.40635343 -3.77645102 2.73792976 -4.0625 1.0625 C-3.0625 0.0625 -3.0625 0.0625 0 0 Z " fill="#1A0F15" transform="translate(140.0625,109.9375)"/>
<path d="M0 0 C0.66 1.32 1.32 2.64 2 4 C-2.43076923 6.09230769 -2.43076923 6.09230769 -5.3125 5.625 C-5.869375 5.41875 -6.42625 5.2125 -7 5 C-4.35261084 3.5393715 -3.10551666 3 0 3 C0 2.01 0 1.02 0 0 Z " fill="#4C312A" transform="translate(215,105)"/>
</svg>
