<?xml version="1.0" standalone="no"?>
<!DOCTYPE svg PUBLIC "-//W3C//DTD SVG 20010904//EN"
 "http://www.w3.org/TR/2001/REC-SVG-20010904/DTD/svg10.dtd">
<svg version="1.0" xmlns="http://www.w3.org/2000/svg"
 width="626.000000pt" height="501.000000pt" viewBox="0 0 626.000000 501.000000"
 preserveAspectRatio="xMidYMid meet">

<g transform="translate(0.000000,501.000000) scale(0.100000,-0.100000)"
fill="#000000" stroke="none">
<path d="M1536 4769 c-64 -10 -161 -59 -217 -108 -34 -30 -59 -42 -102 -50
-145 -27 -241 -121 -282 -278 -21 -80 -19 -240 4 -336 20 -86 26 -96 43 -79 7
7 21 12 33 12 44 0 120 105 202 278 31 64 58 119 59 121 2 2 27 -12 56 -31 29
-19 78 -44 108 -55 51 -19 88 -26 277 -53 78 -11 154 -34 188 -56 12 -8 42
-56 68 -107 60 -121 69 -129 139 -121 l54 6 22 107 c37 179 28 291 -33 414
-40 80 -70 114 -158 179 -169 125 -327 179 -461 157z"/>
<path d="M1720 4056 c-22 -28 -3 -42 91 -69 81 -23 95 -25 108 -13 25 26 4 43
-80 66 -45 12 -87 24 -94 26 -6 3 -18 -2 -25 -10z"/>
<path d="M1293 4007 c-70 -27 -83 -36 -83 -54 0 -35 19 -34 131 9 69 26 80 33
77 52 -4 31 -32 29 -125 -7z"/>
<path d="M1700 3921 c-16 -31 -12 -49 15 -67 23 -15 27 -15 50 0 27 18 33 54
13 74 -19 19 -66 15 -78 -7z"/>
<path d="M1367 3902 c-22 -24 -21 -45 1 -65 35 -32 82 -15 82 29 0 48 -52 70
-83 36z"/>
<path d="M1736 3502 c-64 -33 -200 -43 -259 -19 -35 15 -37 15 -28 -2 6 -10
28 -34 51 -54 36 -33 46 -37 95 -37 80 0 180 57 159 91 -4 7 -3 10 3 6 6 -4
15 5 21 18 7 14 11 24 9 24 -1 -1 -24 -13 -51 -27z"/>
<path d="M1858 2977 c28 -16 84 -93 122 -168 l28 -55 127 -23 c69 -13 128 -21
131 -19 2 3 -54 15 -124 28 l-128 23 -37 72 c-40 77 -105 155 -128 155 -8 -1
-4 -6 9 -13z"/>
<path d="M1328 2923 c-39 -42 -62 -82 -72 -128 -6 -29 -13 -33 -109 -64 -306
-99 -406 -167 -536 -359 -80 -119 -153 -313 -150 -401 1 -24 5 -11 14 39 44
256 208 500 405 605 41 21 142 62 225 91 l149 51 19 58 c13 37 34 73 61 101
24 24 40 44 36 44 -3 0 -22 -17 -42 -37z"/>
<path d="M1680 2834 c0 -13 58 -95 74 -106 14 -10 103 -8 141 3 25 7 23 8 -15
4 -25 -2 -64 -1 -88 2 -38 5 -47 12 -78 57 -19 28 -34 46 -34 40z"/>
<path d="M1550 2814 c0 -30 -44 -95 -68 -101 -13 -3 -54 -3 -91 0 -39 3 -56 2
-41 -3 14 -4 53 -8 87 -9 59 -1 63 1 87 32 24 32 46 97 32 97 -3 0 -6 -7 -6
-16z"/>
<path d="M2403 2625 c0 -38 2 -53 4 -32 2 20 2 52 0 70 -2 17 -4 1 -4 -38z"/>
<path d="M1706 2497 c-38 -27 2 -95 42 -71 24 16 28 55 6 71 -10 7 -21 13 -24
13 -3 0 -14 -6 -24 -13z m52 -33 c4 -27 -26 -40 -46 -20 -21 20 -8 48 20 44
14 -2 24 -11 26 -24z"/>
<path d="M2404 2355 c0 -88 2 -123 3 -77 2 46 2 118 0 160 -1 42 -3 5 -3 -83z"/>
<path d="M1636 2295 c3 -104 9 -210 14 -235 6 -33 7 -19 3 50 -3 52 -9 158
-14 235 -7 126 -7 121 -3 -50z"/>
<path d="M1732 2028 c-16 -16 -15 -38 3 -58 15 -16 11 -18 -57 -28 -177 -27
-331 -44 -457 -52 l-136 -9 150 4 c155 4 276 18 546 60 86 14 159 25 163 25 3
0 6 -9 6 -20 0 -11 5 -20 11 -20 6 0 8 7 5 16 -3 9 -6 21 -6 28 0 11 -16 11
-82 0 -46 -8 -84 -14 -86 -14 -1 0 2 9 8 20 22 42 -34 82 -68 48z m53 -28 c0
-18 -6 -26 -21 -28 -26 -4 -40 24 -23 45 18 21 44 11 44 -17z"/>
<path d="M980 1915 c0 -8 4 -15 10 -15 5 0 7 7 4 15 -4 8 -8 15 -10 15 -2 0
-4 -7 -4 -15z"/>
<path d="M1023 1893 c9 -2 23 -2 30 0 6 3 -1 5 -18 5 -16 0 -22 -2 -12 -5z"/>
<path d="M461 1845 c-3 -88 57 -212 144 -300 104 -104 235 -168 403 -196 72
-12 72 -12 78 -48 55 -319 130 -622 242 -979 l88 -277 497 -3 497 -2 2 322 c2
178 1 501 -2 718 l-5 395 -5 -294 -5 -293 -140 -85 c-172 -103 -429 -231 -550
-273 -185 -64 -406 -92 -418 -52 -71 250 -148 579 -182 772 l-17 95 -111 22
c-147 29 -253 81 -348 171 -96 90 -138 166 -158 287 -6 34 -9 41 -10 20z
m1939 -1155 c0 -21 -2 -22 -14 -10 -7 8 -28 43 -47 78 -27 53 -30 65 -18 72
11 7 21 -5 46 -53 18 -34 32 -73 33 -87z m-216 -68 c15 -35 26 -65 24 -68 -6
-6 -255 -123 -268 -126 -6 -2 -24 32 -40 74 l-28 77 131 69 c149 77 135 79
181 -26z m-475 -184 c23 -81 25 -88 13 -88 -8 0 -52 126 -52 148 0 7 4 12 9
12 4 0 18 -33 30 -72z"/>
<path d="M2013 1480 l2 -55 -88 -18 c-48 -9 -149 -26 -225 -37 -91 -13 -112
-18 -62 -14 41 3 141 16 222 29 81 14 152 25 158 25 12 0 12 64 0 100 -7 19
-8 11 -7 -30z"/>
<path d="M1483 1343 c15 -2 37 -2 50 0 12 2 0 4 -28 4 -27 0 -38 -2 -22 -4z"/>
<path d="M1801 1295 c-3 -30 155 -552 164 -543 2 1 -19 77 -47 168 -27 91 -63
210 -79 265 -32 111 -37 125 -38 110z"/>
<path d="M1910 1235 c-21 -25 3 -67 37 -63 34 4 52 31 37 56 -15 23 -57 27
-74 7z m60 -10 c10 -12 10 -18 0 -30 -17 -20 -37 -19 -49 3 -18 34 24 57 49
27z"/>
<path d="M2037 823 c-4 -3 -7 -19 -7 -34 0 -22 6 -30 25 -35 43 -11 73 34 43
64 -13 13 -50 16 -61 5z m58 -33 c0 -18 -6 -26 -23 -28 -24 -4 -38 18 -28 44
3 9 15 14 28 12 17 -2 23 -10 23 -28z"/>
</g>
</svg>
